# xmcd CD database file
#
# Track frame offsets:
#	150
#	27501
#	56256
#	77836
#	111047
#	135022
#	171750
#	204732
#	234651
#
# Disc length: 3625 seconds
#
# Revision: 2
# Processed by: cddbd v1.5.2PL0 Copyright (c) Steve Scherf et al.
# Submitted via: CDex 1.51
#
DISCID=6d0e2709
DTITLE=Miles Davis - Vol.8 - Out of the Blue - Minor March 1955
DYEAR=1900
DGENRE=Jazz
TTITLE0=I Didn't (Miles Davis) Miles Davis Quartet
TTITLE1=Will You Still Be Mine ¿ (Tom Adair - Matt Dennis) Miles Davis Quartet
TTITLE2=I See You Face Before (Howard Dietz - Arthur Schwartz) Miles Davis Quartet
TTITLE3=A Night In Tunisia) (Dizzy Gillespie - Frank Paparelli) Miles Davis Quartet
TTITLE4=A Gal in Calico (Leo Robin - Arthur Schwartz) Miles Davis Quintet
TTITLE5=There's No You (Adair - Hopper) Miles Davis Quintet
TTITLE6=Alone Together (Dietz - Schwartz) Miles Davis Quintet
TTITLE7=Bitty Ditty (Thad Jones) Miles Davis Sextet
TTITLE8=Minor March (Jackie McLean) Miles Davis Sextet
EXTD=
EXTT0=
EXTT1=
EXTT2=
EXTT3=
EXTT4=
EXTT5=
EXTT6=
EXTT7=
EXTT8=
PLAYORDER=
